# xmcd
#
# Track frame offsets: 
#        162
#        17182
#        43445
#        66527
#        84145
#        101715
#        124452
#        141012
#        157402
#        182715
#        200427
#        228125
#
# Disc length: 3249 seconds
#
# Revision: 0
# Processed by: cddbd v1.5.2PL0 Copyright (c) Steve Scherf et al.
# Submitted via: ExactAudioCopy v0.99pb5
#
DISCID=b00caf0c
DTITLE=Various Artist - Beats In Time - Volume 1 [CD 1)
DYEAR=1991
DGENRE=House
TTITLE0=Carlton - Excite Me (Special UK Mix)
TTITLE1=Dinosaur L - Go Bang (Original Version)
TTITLE2=Ultramagnetic MC's - Travelling At The Speed Of Thought (Origi
TTITLE2=nal Version)
TTITLE3=Kechia Jenkins - I Need Somebody (Fly Guy Mix)
TTITLE4=Cairo - Smokin' (Original)
TTITLE5=Rob Base and DJ E-Z Rock - It Takes Two (Original Mix)
TTITLE6=Brian Keith - Touch Me (Radio Mix)
TTITLE7=Scram - Running Away (Original Mix)
TTITLE8=The Moody Boys - Acid Heaven (Original Mix)
TTITLE9=Koxo' Club Band - Paradhouse (Radio Edit Remix)
TTITLE10=Freeez - I.O.U (Vocal Mix)
TTITLE11=Cool C - C. Is Cool (Original Mix)
EXTD=
EXTT0=
EXTT1=
EXTT2=
EXTT3=
EXTT4=
EXTT5=
EXTT6=
EXTT7=
EXTT8=
EXTT9=
EXTT10=
EXTT11=
PLAYORDER=
